<svg width="606" height="149" viewBox="0 0 606 149" fill="none" xmlns="http://www.w3.org/2000/svg">
<path d="M32.4172 148.842L34.7756 148.184C37.044 147.552 38.369 145.204 37.7351 142.94L10.7717 46.6441C10.3912 45.2851 9.48537 44.1326 8.25343 43.4402C7.02148 42.7478 5.56436 42.5722 4.20265 42.9519L3.89808 43.0368C1.06228 43.8275 -0.594297 46.7627 0.197993 49.5928L27.162 145.888C27.7959 148.152 30.1487 149.475 32.4172 148.842Z" fill="#312E81"/>
<path d="M127.37 81.5484C118.819 77.2935 110.909 71.8625 103.87 65.4142C103.279 64.8737 103.047 64.044 103.274 63.2762C106.762 50.1092 109.352 36.7215 111.026 23.2052C111.291 20.957 110.076 20.2957 108.795 21.8386C83.6615 51.8368 40.174 16.3504 14.2891 43.6154C14.5998 44.1961 14.8443 44.8097 15.0179 45.4448L32.5101 107.954C58.4392 81.0194 101.772 116.285 126.862 86.3534C128.143 84.8105 128.386 81.9892 127.37 81.5484Z" fill="#312E81"/>
<path d="M56.4938 80.6859C55.8362 80.7088 55.1165 80.7496 54.3347 80.8082C53.5541 80.8981 52.8047 80.9869 52.0867 81.0746C51.4 81.1613 50.838 81.2279 50.4006 81.2745C49.9644 81.3524 49.7463 81.3913 49.7463 81.3913L49.9667 78.2798C51.3044 77.9823 52.1994 77.5749 52.6516 77.0575C53.1026 76.5088 53.3068 75.6238 53.2641 74.4026L52.6668 55.9882C52.6361 55.1114 52.5051 54.5046 52.2739 54.1678C52.0739 53.8299 51.6765 53.6713 51.0815 53.692C50.7997 53.7018 50.4558 53.7295 50.0498 53.775C49.6751 53.8194 49.4878 53.8416 49.4878 53.8416L49.1458 53.4773L49.4699 50.6443C49.4699 50.6443 49.721 50.6512 50.2231 50.6651C50.7241 50.6476 51.3348 50.6263 52.055 50.6012C52.8065 50.575 53.5273 50.5656 54.2173 50.5729C54.9376 50.5478 55.5169 50.5276 55.9553 50.5123C56.2684 50.5014 56.7068 50.4861 57.2705 50.4665C57.8644 50.4145 58.4901 50.377 59.1477 50.3541C59.8042 50.2998 60.4294 50.2467 61.0233 50.1946C61.6171 50.1426 62.102 50.11 62.4777 50.0969C62.8524 50.0525 63.0398 50.0303 63.0398 50.0303C66.2651 49.9179 68.7452 50.4585 70.48 51.6522C72.2137 52.8145 73.1222 54.5856 73.2055 56.9655C73.2625 58.5938 72.8421 60.0193 71.9443 61.242C71.0465 62.4647 69.8597 63.4936 68.3841 64.3288C69.6789 64.5972 70.8227 65.0277 71.8153 65.6201C72.8393 66.2115 73.6652 66.9665 74.293 67.8852C74.9198 68.7726 75.2551 69.8425 75.2989 71.0951C75.3646 72.974 74.9055 74.636 73.9214 76.0811C72.9687 77.5252 71.5979 78.6703 69.809 79.5164C68.0202 80.3626 65.9045 80.8282 63.462 80.9133C63.0236 80.9286 62.4902 80.9159 61.8617 80.875C61.2656 80.8645 60.6377 80.8393 59.9779 80.7996C59.3494 80.7588 58.7209 80.718 58.0925 80.6772C57.4964 80.6666 56.9635 80.6695 56.4938 80.6859ZM59.179 67.3773L59.2344 74.3356C59.2695 75.3376 59.6391 76.0459 60.3434 76.4603C61.0465 76.8433 62.1966 77.007 63.7937 76.9514C65.3594 76.8968 66.5507 76.4477 67.3677 75.6041C68.2149 74.728 68.6123 73.5385 68.5597 72.0354C68.4665 69.3737 66.7952 67.7546 63.5457 67.1781L59.179 67.3773ZM59.13 63.2875C59.13 63.2875 59.3184 63.2966 59.6953 63.3148C60.0721 63.3331 60.5284 63.3799 61.064 63.4553C61.5986 63.4993 62.1012 63.5288 62.572 63.5438C63.0742 63.5576 63.4348 63.5608 63.654 63.5531C63.654 63.5531 63.8079 63.4694 64.1155 63.3019C64.4545 63.1333 64.8366 62.8535 65.2619 62.4625C65.686 62.0401 66.0437 61.5103 66.335 60.8731C66.6564 60.2035 66.7996 59.3677 66.7645 58.3656C66.7086 56.7686 66.1352 55.6129 65.0442 54.8984C63.9532 54.184 62.2804 53.8661 60.0258 53.9447C59.7127 53.9556 59.4957 54.0258 59.3748 54.1555C59.2841 54.2527 59.2297 54.4897 59.2115 54.8666C59.1785 55.7142 59.1493 56.6715 59.1239 57.7384C59.1288 58.7728 59.1325 59.776 59.1352 60.7478C59.1378 61.7196 59.1361 62.5662 59.13 63.2875Z" fill="white"/>
<path d="M158.022 84V27.12H180.577C184.421 27.12 187.568 27.8968 190.017 29.4505C192.493 30.9778 194.323 32.9397 195.508 35.336C196.719 37.7323 197.325 40.2077 197.325 42.762C197.325 45.8957 196.574 48.5553 195.073 50.741C193.599 52.9267 191.584 54.4013 189.03 55.165V53.19C192.611 54.0063 195.323 55.7048 197.167 58.2855C199.036 60.8662 199.971 63.8023 199.971 67.094C199.971 70.4647 199.326 73.414 198.036 75.942C196.745 78.47 194.823 80.445 192.269 81.867C189.741 83.289 186.607 84 182.868 84H158.022ZM167.66 75.0335H181.683C183.342 75.0335 184.83 74.7043 186.146 74.046C187.463 73.3613 188.49 72.4133 189.227 71.202C189.991 69.9643 190.373 68.5028 190.373 66.8175C190.373 65.2902 190.044 63.9208 189.385 62.7095C188.727 61.4982 187.766 60.537 186.502 59.826C185.238 59.0887 183.724 58.72 181.959 58.72H167.66V75.0335ZM167.66 49.8325H180.458C181.828 49.8325 183.052 49.5692 184.132 49.0425C185.211 48.5158 186.067 47.739 186.699 46.712C187.331 45.685 187.647 44.421 187.647 42.92C187.647 40.945 187.015 39.2992 185.751 37.9825C184.487 36.6658 182.723 36.0075 180.458 36.0075H167.66V49.8325ZM227.255 85.185C222.936 85.185 219.144 84.2502 215.879 82.3805C212.613 80.5108 210.059 77.917 208.216 74.599C206.399 71.281 205.49 67.4627 205.49 63.144C205.49 58.483 206.385 54.4408 208.176 51.0175C209.967 47.5678 212.455 44.895 215.642 42.999C218.828 41.103 222.515 40.155 226.702 40.155C231.126 40.155 234.878 41.1952 237.959 43.2755C241.066 45.3295 243.371 48.2393 244.872 52.005C246.373 55.7707 246.939 60.2078 246.57 65.3165H237.13V61.8405C237.103 57.2058 236.287 53.822 234.681 51.689C233.074 49.556 230.546 48.4895 227.097 48.4895C223.199 48.4895 220.303 49.7008 218.407 52.1235C216.511 54.5198 215.563 58.0353 215.563 62.67C215.563 66.9887 216.511 70.333 218.407 72.703C220.303 75.073 223.068 76.258 226.702 76.258C229.045 76.258 231.06 75.7445 232.745 74.7175C234.457 73.6642 235.773 72.15 236.695 70.175L246.096 73.019C244.463 76.8637 241.935 79.8525 238.512 81.9855C235.115 84.1185 231.363 85.185 227.255 85.185ZM212.561 65.3165V58.1275H241.909V65.3165H212.561ZM280.387 84C277.569 84.5267 274.804 84.7505 272.092 84.6715C269.406 84.6188 266.997 84.1317 264.864 83.21C262.731 82.262 261.111 80.7742 260.005 78.7465C259.031 76.9032 258.517 75.0203 258.465 73.098C258.412 71.1757 258.386 69.0032 258.386 66.5805V29.49H267.866V66.0275C267.866 67.7392 267.879 69.2402 267.905 70.5305C267.958 71.8208 268.234 72.8742 268.735 73.6905C269.683 75.2705 271.197 76.1527 273.277 76.337C275.357 76.5213 277.727 76.416 280.387 76.021V84ZM250.644 48.8055V41.34H280.387V48.8055H250.644ZM309.854 84C307.036 84.5267 304.271 84.7505 301.559 84.6715C298.873 84.6188 296.464 84.1317 294.331 83.21C292.198 82.262 290.578 80.7742 289.472 78.7465C288.498 76.9032 287.984 75.0203 287.932 73.098C287.879 71.1757 287.853 69.0032 287.853 66.5805V29.49H297.333V66.0275C297.333 67.7392 297.346 69.2402 297.372 70.5305C297.425 71.8208 297.701 72.8742 298.202 73.6905C299.15 75.2705 300.664 76.1527 302.744 76.337C304.824 76.5213 307.194 76.416 309.854 76.021V84ZM280.111 48.8055V41.34H309.854V48.8055H280.111ZM338.503 85.185C334.184 85.185 330.392 84.2502 327.127 82.3805C323.861 80.5108 321.307 77.917 319.464 74.599C317.647 71.281 316.738 67.4627 316.738 63.144C316.738 58.483 317.633 54.4408 319.424 51.0175C321.215 47.5678 323.703 44.895 326.89 42.999C330.076 41.103 333.763 40.155 337.95 40.155C342.374 40.155 346.126 41.1952 349.207 43.2755C352.314 45.3295 354.619 48.2393 356.12 52.005C357.621 55.7707 358.187 60.2078 357.818 65.3165H348.378V61.8405C348.351 57.2058 347.535 53.822 345.929 51.689C344.322 49.556 341.794 48.4895 338.345 48.4895C334.447 48.4895 331.551 49.7008 329.655 52.1235C327.759 54.5198 326.811 58.0353 326.811 62.67C326.811 66.9887 327.759 70.333 329.655 72.703C331.551 75.073 334.316 76.258 337.95 76.258C340.293 76.258 342.308 75.7445 343.993 74.7175C345.705 73.6642 347.021 72.15 347.943 70.175L357.344 73.019C355.711 76.8637 353.183 79.8525 349.76 81.9855C346.363 84.1185 342.611 85.185 338.503 85.185ZM323.809 65.3165V58.1275H353.157V65.3165H323.809ZM366.632 84V41.34H375.045V51.7285L374.018 50.3855C374.545 48.9635 375.243 47.6732 376.112 46.5145C377.007 45.3295 378.073 44.3552 379.311 43.5915C380.364 42.8805 381.523 42.3275 382.787 41.9325C384.077 41.5112 385.394 41.261 386.737 41.182C388.08 41.0767 389.384 41.1293 390.648 41.34V50.2275C389.384 49.8588 387.922 49.7403 386.263 49.872C384.63 50.0037 383.156 50.4645 381.839 51.2545C380.522 51.9655 379.443 52.874 378.6 53.98C377.784 55.086 377.178 56.35 376.783 57.772C376.388 59.1677 376.191 60.6818 376.191 62.3145V84H366.632ZM398.185 84V27.12H406.757L426.428 67.41L446.099 27.12H454.67V84H445.783V47.5415L428.324 84H424.532L407.112 47.5415V84H398.185ZM485.162 85.185C480.843 85.185 477.051 84.2502 473.786 82.3805C470.52 80.5108 467.966 77.917 466.123 74.599C464.306 71.281 463.397 67.4627 463.397 63.144C463.397 58.483 464.293 54.4408 466.083 51.0175C467.874 47.5678 470.362 44.895 473.549 42.999C476.735 41.103 480.422 40.155 484.609 40.155C489.033 40.155 492.785 41.1952 495.866 43.2755C498.974 45.3295 501.278 48.2393 502.779 52.005C504.28 55.7707 504.846 60.2078 504.477 65.3165H495.037V61.8405C495.01 57.2058 494.194 53.822 492.588 51.689C490.981 49.556 488.453 48.4895 485.004 48.4895C481.106 48.4895 478.21 49.7008 476.314 52.1235C474.418 54.5198 473.47 58.0353 473.47 62.67C473.47 66.9887 474.418 70.333 476.314 72.703C478.21 75.073 480.975 76.258 484.609 76.258C486.952 76.258 488.967 75.7445 490.652 74.7175C492.364 73.6642 493.681 72.15 494.602 70.175L504.003 73.019C502.371 76.8637 499.843 79.8525 496.419 81.9855C493.022 84.1185 489.27 85.185 485.162 85.185ZM470.468 65.3165V58.1275H499.816V65.3165H470.468ZM541.64 84V63.46C541.64 62.117 541.548 60.6292 541.364 58.9965C541.179 57.3638 540.745 55.797 540.06 54.296C539.402 52.7687 538.401 51.5178 537.058 50.5435C535.741 49.5692 533.951 49.082 531.686 49.082C530.475 49.082 529.277 49.2795 528.092 49.6745C526.907 50.0695 525.827 50.7542 524.853 51.7285C523.905 52.6765 523.141 53.9932 522.562 55.6785C521.982 57.3375 521.693 59.4705 521.693 62.0775L516.044 59.668C516.044 56.034 516.742 52.7423 518.138 49.793C519.56 46.8437 521.64 44.5 524.379 42.762C527.117 40.9977 530.488 40.1155 534.491 40.1155C537.651 40.1155 540.258 40.6422 542.312 41.6955C544.366 42.7488 545.998 44.0918 547.21 45.7245C548.421 47.3572 549.316 49.0952 549.896 50.9385C550.475 52.7818 550.844 54.533 551.002 56.192C551.186 57.8247 551.278 59.1545 551.278 60.1815V84H541.64ZM512.055 84V41.34H520.547V54.5725H521.693V84H512.055ZM577.583 85.2245C574.423 85.2245 571.816 84.6978 569.762 83.6445C567.708 82.5912 566.075 81.2482 564.864 79.6155C563.653 77.9828 562.757 76.2448 562.178 74.4015C561.599 72.5582 561.217 70.8202 561.033 69.1875C560.875 67.5285 560.796 66.1855 560.796 65.1585V41.34H570.434V61.88C570.434 63.1967 570.526 64.6845 570.71 66.3435C570.894 67.9762 571.316 69.5562 571.974 71.0835C572.659 72.5845 573.659 73.8222 574.976 74.7965C576.319 75.7708 578.123 76.258 580.388 76.258C581.599 76.258 582.797 76.0605 583.982 75.6655C585.167 75.2705 586.234 74.599 587.182 73.651C588.156 72.6767 588.933 71.3468 589.512 69.6615C590.091 67.9762 590.381 65.8432 590.381 63.2625L596.03 65.672C596.03 69.306 595.319 72.5977 593.897 75.547C592.501 78.4963 590.434 80.8532 587.695 82.6175C584.956 84.3555 581.586 85.2245 577.583 85.2245ZM591.527 84V70.7675H590.381V41.34H599.94V84H591.527Z" fill="#312E81"/>
</svg>
