<svg width="948" height="136" viewBox="0 0 948 136" fill="none" xmlns="http://www.w3.org/2000/svg">
<path d="M32.4172 135.842L34.7756 135.184C37.044 134.552 38.369 132.204 37.7351 129.94L10.7717 33.6441C10.3912 32.2851 9.48537 31.1326 8.25343 30.4402C7.02148 29.7478 5.56436 29.5722 4.20265 29.9519L3.89808 30.0368C1.06228 30.8275 -0.594297 33.7627 0.197993 36.5928L27.162 132.888C27.7959 135.152 30.1487 136.475 32.4172 135.842Z" fill="white"/>
<path d="M127.37 68.5484C118.819 64.2935 110.909 58.8625 103.87 52.4142C103.279 51.8737 103.047 51.044 103.274 50.2762C106.762 37.1092 109.352 23.7215 111.026 10.2052C111.291 7.95699 110.076 7.29575 108.795 8.83864C83.6615 38.8368 40.174 3.35036 14.2891 30.6154C14.5998 31.1961 14.8443 31.8097 15.0179 32.4448L32.5101 94.9538C58.4392 68.0194 101.772 103.285 126.862 73.3534C128.143 71.8105 128.386 68.9892 127.37 68.5484Z" fill="white"/>
<path d="M56.4938 67.6859C55.8362 67.7088 55.1165 67.7496 54.3347 67.8082C53.5541 67.8981 52.8047 67.9869 52.0867 68.0746C51.4 68.1613 50.838 68.2279 50.4006 68.2745C49.9644 68.3524 49.7463 68.3913 49.7463 68.3913L49.9667 65.2798C51.3044 64.9823 52.1994 64.5749 52.6516 64.0575C53.1026 63.5088 53.3068 62.6238 53.2641 61.4026L52.6668 42.9882C52.6361 42.1114 52.5051 41.5046 52.2739 41.1678C52.0739 40.8299 51.6765 40.6713 51.0815 40.692C50.7997 40.7018 50.4558 40.7295 50.0498 40.775C49.6751 40.8194 49.4878 40.8416 49.4878 40.8416L49.1458 40.4773L49.4699 37.6443C49.4699 37.6443 49.721 37.6512 50.2231 37.6651C50.7241 37.6476 51.3348 37.6263 52.055 37.6012C52.8065 37.575 53.5273 37.5656 54.2173 37.5729C54.9376 37.5478 55.5169 37.5276 55.9553 37.5123C56.2684 37.5014 56.7068 37.4861 57.2705 37.4665C57.8644 37.4145 58.4901 37.377 59.1477 37.3541C59.8042 37.2998 60.4294 37.2467 61.0233 37.1946C61.6171 37.1426 62.102 37.11 62.4777 37.0969C62.8524 37.0525 63.0398 37.0303 63.0398 37.0303C66.2651 36.9179 68.7452 37.4585 70.48 38.6522C72.2137 39.8145 73.1222 41.5856 73.2055 43.9655C73.2625 45.5938 72.8421 47.0193 71.9443 48.242C71.0465 49.4647 69.8597 50.4936 68.3841 51.3288C69.6789 51.5972 70.8227 52.0277 71.8153 52.6201C72.8393 53.2115 73.6652 53.9665 74.293 54.8852C74.9198 55.7726 75.2551 56.8425 75.2989 58.0951C75.3646 59.974 74.9055 61.636 73.9214 63.0811C72.9687 64.5252 71.5979 65.6703 69.809 66.5164C68.0202 67.3626 65.9045 67.8282 63.462 67.9133C63.0236 67.9286 62.4902 67.9159 61.8617 67.875C61.2656 67.8645 60.6377 67.8393 59.9779 67.7996C59.3494 67.7588 58.7209 67.718 58.0925 67.6772C57.4964 67.6666 56.9635 67.6695 56.4938 67.6859ZM59.179 54.3773L59.2344 61.3356C59.2695 62.3376 59.6391 63.0459 60.3434 63.4603C61.0465 63.8433 62.1966 64.007 63.7937 63.9514C65.3594 63.8968 66.5507 63.4477 67.3677 62.6041C68.2149 61.728 68.6123 60.5385 68.5597 59.0354C68.4665 56.3737 66.7952 54.7546 63.5457 54.1781L59.179 54.3773ZM59.13 50.2875C59.13 50.2875 59.3184 50.2966 59.6953 50.3148C60.0721 50.3331 60.5284 50.3799 61.064 50.4553C61.5986 50.4993 62.1012 50.5288 62.572 50.5438C63.0742 50.5576 63.4348 50.5608 63.654 50.5531C63.654 50.5531 63.8079 50.4694 64.1155 50.3019C64.4545 50.1333 64.8366 49.8535 65.2619 49.4625C65.686 49.0401 66.0437 48.5103 66.335 47.8731C66.6564 47.2035 66.7996 46.3677 66.7645 45.3656C66.7086 43.7686 66.1352 42.6129 65.0442 41.8984C63.9532 41.184 62.2804 40.8661 60.0258 40.9447C59.7127 40.9556 59.4957 41.0258 59.3748 41.1555C59.2841 41.2527 59.2297 41.4897 59.2115 41.8666C59.1785 42.7142 59.1493 43.6715 59.1239 44.7384C59.1288 45.7728 59.1325 46.776 59.1352 47.7478C59.1378 48.7196 59.1361 49.5662 59.13 50.2875Z" fill="#312E81"/>
<path d="M159.53 84V27.12H182.085C185.929 27.12 189.076 27.8968 191.525 29.4505C194 30.9778 195.831 32.9397 197.016 35.336C198.227 37.7323 198.833 40.2077 198.833 42.762C198.833 45.8957 198.082 48.5553 196.581 50.741C195.106 52.9267 193.092 54.4013 190.538 55.165V53.19C194.119 54.0063 196.831 55.7048 198.675 58.2855C200.544 60.8662 201.479 63.8023 201.479 67.094C201.479 70.4647 200.834 73.414 199.543 75.942C198.253 78.47 196.331 80.445 193.777 81.867C191.249 83.289 188.115 84 184.376 84H159.53ZM169.168 75.0335H183.191C184.85 75.0335 186.337 74.7043 187.654 74.046C188.971 73.3613 189.998 72.4133 190.735 71.202C191.499 69.9643 191.881 68.5028 191.881 66.8175C191.881 65.2902 191.551 63.9208 190.893 62.7095C190.235 61.4982 189.274 60.537 188.01 59.826C186.746 59.0887 185.231 58.72 183.467 58.72H169.168V75.0335ZM169.168 49.8325H181.966C183.335 49.8325 184.56 49.5692 185.64 49.0425C186.719 48.5158 187.575 47.739 188.207 46.712C188.839 45.685 189.155 44.421 189.155 42.92C189.155 40.945 188.523 39.2992 187.259 37.9825C185.995 36.6658 184.231 36.0075 181.966 36.0075H169.168V49.8325ZM228.762 85.185C224.444 85.185 220.652 84.2502 217.386 82.3805C214.121 80.5108 211.567 77.917 209.723 74.599C207.906 71.281 206.998 67.4627 206.998 63.144C206.998 58.483 207.893 54.4408 209.684 51.0175C211.475 47.5678 213.963 44.895 217.149 42.999C220.336 41.103 224.022 40.155 228.209 40.155C232.633 40.155 236.386 41.1952 239.467 43.2755C242.574 45.3295 244.878 48.2393 246.379 52.005C247.88 55.7707 248.447 60.2078 248.078 65.3165H238.637V61.8405C238.611 57.2058 237.795 53.822 236.188 51.689C234.582 49.556 232.054 48.4895 228.604 48.4895C224.707 48.4895 221.81 49.7008 219.914 52.1235C218.018 54.5198 217.07 58.0353 217.07 62.67C217.07 66.9887 218.018 70.333 219.914 72.703C221.81 75.073 224.575 76.258 228.209 76.258C230.553 76.258 232.568 75.7445 234.253 74.7175C235.965 73.6642 237.281 72.15 238.203 70.175L247.604 73.019C245.971 76.8637 243.443 79.8525 240.02 81.9855C236.623 84.1185 232.87 85.185 228.762 85.185ZM214.068 65.3165V58.1275H243.417V65.3165H214.068ZM281.895 84C279.077 84.5267 276.312 84.7505 273.6 84.6715C270.914 84.6188 268.504 84.1317 266.371 83.21C264.238 82.262 262.619 80.7742 261.513 78.7465C260.538 76.9032 260.025 75.0203 259.972 73.098C259.92 71.1757 259.893 69.0032 259.893 66.5805V29.49H269.373V66.0275C269.373 67.7392 269.386 69.2402 269.413 70.5305C269.465 71.8208 269.742 72.8742 270.242 73.6905C271.19 75.2705 272.704 76.1527 274.785 76.337C276.865 76.5213 279.235 76.416 281.895 76.021V84ZM252.151 48.8055V41.34H281.895V48.8055H252.151ZM311.362 84C308.544 84.5267 305.779 84.7505 303.067 84.6715C300.381 84.6188 297.971 84.1317 295.838 83.21C293.705 82.262 292.086 80.7742 290.98 78.7465C290.005 76.9032 289.492 75.0203 289.439 73.098C289.387 71.1757 289.36 69.0032 289.36 66.5805V29.49H298.84V66.0275C298.84 67.7392 298.853 69.2402 298.88 70.5305C298.932 71.8208 299.209 72.8742 299.709 73.6905C300.657 75.2705 302.171 76.1527 304.252 76.337C306.332 76.5213 308.702 76.416 311.362 76.021V84ZM281.618 48.8055V41.34H311.362V48.8055H281.618ZM340.01 85.185C335.692 85.185 331.9 84.2502 328.634 82.3805C325.369 80.5108 322.815 77.917 320.971 74.599C319.154 71.281 318.246 67.4627 318.246 63.144C318.246 58.483 319.141 54.4408 320.932 51.0175C322.723 47.5678 325.211 44.895 328.397 42.999C331.584 41.103 335.27 40.155 339.457 40.155C343.881 40.155 347.634 41.1952 350.715 43.2755C353.822 45.3295 356.126 48.2393 357.627 52.005C359.128 55.7707 359.695 60.2078 359.326 65.3165H349.885V61.8405C349.859 57.2058 349.043 53.822 347.436 51.689C345.83 49.556 343.302 48.4895 339.852 48.4895C335.955 48.4895 333.058 49.7008 331.162 52.1235C329.266 54.5198 328.318 58.0353 328.318 62.67C328.318 66.9887 329.266 70.333 331.162 72.703C333.058 75.073 335.823 76.258 339.457 76.258C341.801 76.258 343.816 75.7445 345.501 74.7175C347.213 73.6642 348.529 72.15 349.451 70.175L358.852 73.019C357.219 76.8637 354.691 79.8525 351.268 81.9855C347.871 84.1185 344.118 85.185 340.01 85.185ZM325.316 65.3165V58.1275H354.665V65.3165H325.316ZM368.139 84V41.34H376.553V51.7285L375.526 50.3855C376.053 48.9635 376.75 47.6732 377.619 46.5145C378.515 45.3295 379.581 44.3552 380.819 43.5915C381.872 42.8805 383.031 42.3275 384.295 41.9325C385.585 41.5112 386.902 41.261 388.245 41.182C389.588 41.0767 390.891 41.1293 392.155 41.34V50.2275C390.891 49.8588 389.43 49.7403 387.771 49.872C386.138 50.0037 384.664 50.4645 383.347 51.2545C382.03 51.9655 380.951 52.874 380.108 53.98C379.292 55.086 378.686 56.35 378.291 57.772C377.896 59.1677 377.698 60.6818 377.698 62.3145V84H368.139ZM399.693 84V27.12H408.265L427.936 67.41L447.607 27.12H456.178V84H447.291V47.5415L429.832 84H426.04L408.62 47.5415V84H399.693ZM486.67 85.185C482.351 85.185 478.559 84.2502 475.294 82.3805C472.028 80.5108 469.474 77.917 467.631 74.599C465.814 71.281 464.905 67.4627 464.905 63.144C464.905 58.483 465.8 54.4408 467.591 51.0175C469.382 47.5678 471.87 44.895 475.057 42.999C478.243 41.103 481.93 40.155 486.117 40.155C490.541 40.155 494.293 41.1952 497.374 43.2755C500.481 45.3295 502.786 48.2393 504.287 52.005C505.788 55.7707 506.354 60.2078 505.985 65.3165H496.545V61.8405C496.518 57.2058 495.702 53.822 494.096 51.689C492.489 49.556 489.961 48.4895 486.512 48.4895C482.614 48.4895 479.718 49.7008 477.822 52.1235C475.926 54.5198 474.978 58.0353 474.978 62.67C474.978 66.9887 475.926 70.333 477.822 72.703C479.718 75.073 482.483 76.258 486.117 76.258C488.46 76.258 490.475 75.7445 492.16 74.7175C493.872 73.6642 495.188 72.15 496.11 70.175L505.511 73.019C503.878 76.8637 501.35 79.8525 497.927 81.9855C494.53 84.1185 490.778 85.185 486.67 85.185ZM471.976 65.3165V58.1275H501.324V65.3165H471.976ZM543.148 84V63.46C543.148 62.117 543.056 60.6292 542.871 58.9965C542.687 57.3638 542.252 55.797 541.568 54.296C540.909 52.7687 539.909 51.5178 538.566 50.5435C537.249 49.5692 535.458 49.082 533.194 49.082C531.982 49.082 530.784 49.2795 529.599 49.6745C528.414 50.0695 527.335 50.7542 526.36 51.7285C525.412 52.6765 524.649 53.9932 524.069 55.6785C523.49 57.3375 523.2 59.4705 523.2 62.0775L517.552 59.668C517.552 56.034 518.25 52.7423 519.645 49.793C521.067 46.8437 523.148 44.5 525.886 42.762C528.625 40.9977 531.996 40.1155 535.998 40.1155C539.158 40.1155 541.765 40.6422 543.819 41.6955C545.873 42.7488 547.506 44.0918 548.717 45.7245C549.929 47.3572 550.824 49.0952 551.403 50.9385C551.983 52.7818 552.351 54.533 552.509 56.192C552.694 57.8247 552.786 59.1545 552.786 60.1815V84H543.148ZM513.562 84V41.34H522.055V54.5725H523.2V84H513.562ZM579.091 85.2245C575.931 85.2245 573.324 84.6978 571.27 83.6445C569.216 82.5912 567.583 81.2482 566.372 79.6155C565.161 77.9828 564.265 76.2448 563.686 74.4015C563.107 72.5582 562.725 70.8202 562.54 69.1875C562.382 67.5285 562.303 66.1855 562.303 65.1585V41.34H571.941V61.88C571.941 63.1967 572.034 64.6845 572.218 66.3435C572.402 67.9762 572.824 69.5562 573.482 71.0835C574.167 72.5845 575.167 73.8222 576.484 74.7965C577.827 75.7708 579.631 76.258 581.895 76.258C583.107 76.258 584.305 76.0605 585.49 75.6655C586.675 75.2705 587.741 74.599 588.689 73.651C589.664 72.6767 590.441 71.3468 591.02 69.6615C591.599 67.9762 591.889 65.8432 591.889 63.2625L597.537 65.672C597.537 69.306 596.826 72.5977 595.404 75.547C594.009 78.4963 591.942 80.8532 589.203 82.6175C586.464 84.3555 583.094 85.2245 579.091 85.2245ZM593.034 84V70.7675H591.889V41.34H601.448V84H593.034ZM628.361 84V27.12H645.623C646.228 27.12 647.255 27.1332 648.704 27.1595C650.178 27.1858 651.587 27.2912 652.93 27.4755C657.249 28.0812 660.856 29.6875 663.753 32.2945C666.65 34.9015 668.822 38.2195 670.271 42.2485C671.719 46.2775 672.443 50.7147 672.443 55.56C672.443 60.4053 671.719 64.8425 670.271 68.8715C668.822 72.9005 666.65 76.2185 663.753 78.8255C660.856 81.4325 657.249 83.0388 652.93 83.6445C651.613 83.8025 650.205 83.9078 648.704 83.9605C647.203 83.9868 646.176 84 645.623 84H628.361ZM634.365 78.4305H645.623C646.702 78.4305 647.861 78.4042 649.099 78.3515C650.363 78.2725 651.442 78.1408 652.338 77.9565C655.656 77.3772 658.328 76.0342 660.356 73.9275C662.41 71.8208 663.911 69.1875 664.859 66.0275C665.807 62.8412 666.281 59.352 666.281 55.56C666.281 51.7417 665.807 48.2393 664.859 45.053C663.911 41.8667 662.41 39.2333 660.356 37.153C658.302 35.0727 655.629 33.7428 652.338 33.1635C651.442 32.9792 650.349 32.8607 649.059 32.808C647.795 32.729 646.65 32.6895 645.623 32.6895H634.365V78.4305ZM699.254 85.185C695.014 85.185 691.393 84.2238 688.391 82.3015C685.389 80.3792 683.085 77.7195 681.479 74.3225C679.872 70.9255 679.069 67.0282 679.069 62.6305C679.069 58.1538 679.886 54.2302 681.518 50.8595C683.151 47.4888 685.468 44.8687 688.47 42.999C691.499 41.103 695.093 40.155 699.254 40.155C703.52 40.155 707.154 41.1162 710.156 43.0385C713.184 44.9345 715.488 47.581 717.068 50.978C718.675 54.3487 719.478 58.2328 719.478 62.6305C719.478 67.1072 718.675 71.044 717.068 74.441C715.462 77.8117 713.145 80.445 710.116 82.341C707.088 84.237 703.467 85.185 699.254 85.185ZM699.254 79.6155C703.994 79.6155 707.522 78.0487 709.84 74.915C712.157 71.755 713.316 67.6602 713.316 62.6305C713.316 57.4692 712.144 53.3612 709.8 50.3065C707.483 47.2518 703.967 45.7245 699.254 45.7245C696.067 45.7245 693.434 46.4487 691.354 47.897C689.3 49.319 687.759 51.3072 686.732 53.8615C685.732 56.3895 685.231 59.3125 685.231 62.6305C685.231 67.7655 686.416 71.8867 688.786 74.994C691.156 78.075 694.645 79.6155 699.254 79.6155ZM745.887 85.185C741.595 85.185 737.961 84.2238 734.985 82.3015C732.009 80.3792 729.745 77.7327 728.191 74.362C726.664 70.965 725.874 67.0677 725.821 62.67C725.874 58.1933 726.69 54.2697 728.27 50.899C729.85 47.502 732.128 44.8687 735.104 42.999C738.079 41.103 741.687 40.155 745.927 40.155C750.245 40.155 753.998 41.2083 757.184 43.315C760.397 45.4217 762.596 48.3052 763.781 51.9655L758.093 53.7825C757.092 51.2282 755.499 49.2532 753.313 47.8575C751.154 46.4355 748.678 45.7245 745.887 45.7245C742.753 45.7245 740.16 46.4487 738.106 47.897C736.052 49.319 734.524 51.3072 733.524 53.8615C732.523 56.4158 732.009 59.352 731.983 62.67C732.036 67.7787 733.221 71.8867 735.538 74.994C737.855 78.075 741.305 79.6155 745.887 79.6155C748.784 79.6155 751.246 78.9572 753.274 77.6405C755.328 76.2975 756.881 74.3488 757.935 71.7945L763.781 73.5325C762.201 77.3245 759.883 80.2212 756.829 82.2225C753.774 84.1975 750.127 85.185 745.887 85.185ZM787.853 85.1455C782.849 85.1455 778.728 84.0658 775.489 81.9065C772.277 79.7472 770.302 76.7452 769.564 72.9005L775.489 71.913C776.121 74.3357 777.556 76.2712 779.795 77.7195C782.059 79.1415 784.851 79.8525 788.169 79.8525C791.408 79.8525 793.962 79.181 795.832 77.838C797.701 76.4687 798.636 74.6122 798.636 72.2685C798.636 70.9518 798.333 69.8853 797.728 69.069C797.148 68.2263 795.95 67.4495 794.133 66.7385C792.316 66.0275 789.604 65.1848 785.996 64.2105C782.125 63.1572 779.097 62.1038 776.911 61.0505C774.726 59.9972 773.172 58.7858 772.25 57.4165C771.329 56.0208 770.868 54.3223 770.868 52.321C770.868 49.8983 771.552 47.7785 772.922 45.9615C774.291 44.1182 776.187 42.6962 778.61 41.6955C781.032 40.6685 783.85 40.155 787.063 40.155C790.275 40.155 793.146 40.6817 795.674 41.735C798.228 42.762 800.282 44.2103 801.836 46.08C803.389 47.9497 804.311 50.1222 804.601 52.5975L798.676 53.664C798.281 51.1623 797.03 49.1873 794.923 47.739C792.843 46.2643 790.196 45.5007 786.984 45.448C783.955 45.369 781.493 45.9483 779.597 47.186C777.701 48.3973 776.753 50.0168 776.753 52.0445C776.753 53.1768 777.096 54.1512 777.78 54.9675C778.465 55.7575 779.703 56.508 781.493 57.219C783.31 57.93 785.891 58.7068 789.235 59.5495C793.159 60.5502 796.24 61.6035 798.478 62.7095C800.717 63.8155 802.31 65.119 803.258 66.62C804.206 68.121 804.68 69.9775 804.68 72.1895C804.68 76.2185 803.179 79.3917 800.177 81.709C797.201 84 793.093 85.1455 787.853 85.1455Z" fill="white"/>
</svg>
